# xmcd CD database file
#
# Track frame offsets:
#	150
#	29274
#	62716
#	84282
#	104152
#	132194
#	171913
#
# Disc length: 2704 seconds
#
# Revision: 0
# Processed by: cddbd v1.4PL0 Copyright (c) Steve Scherf et al.
# Submitted via: CDex 1.51
#
DISCID=590a8e07
DTITLE=Medwyn Goodall - Summer
DYEAR=2001
DGENRE=New Age
TTITLE0=Medwyn Goodall - Summer - 01 - Cool Of The Shade
TTITLE1=Medwyn Goodall - Summer - 02 - She Smiles Like The Sun
TTITLE2=Medwyn Goodall - Summer - 03 - Lazy Afternoon
TTITLE3=Medwyn Goodall - Summer - 04 - Stars In A Clear Sky
TTITLE4=Medwyn Goodall - Summer - 05 - Days Of Joy
TTITLE5=Medwyn Goodall - Summer - 06 - Summer Dreaming
TTITLE6=Medwyn Goodall - Summer - 07 - Drift Away
EXTD=YEAR: 2001
EXTT0=
EXTT1=
EXTT2=
EXTT3=
EXTT4=
EXTT5=
EXTT6=
PLAYORDER=
